<?xml version="1.0" encoding="UTF-8"?>
<svg width="1440px" height="93px" viewBox="0 0 1440 93" version="1.1" xmlns="http://www.w3.org/2000/svg" xmlns:xlink="http://www.w3.org/1999/xlink">
    <!-- Generator: Sketch 44.1 (41455) - http://www.bohemiancoding.com/sketch -->
    <title>clouds</title>
    <desc>Created with Sketch.</desc>
    <defs></defs>
    <g id="Page-1" stroke="none" stroke-width="1" fill="none" fill-rule="evenodd">
        <g id="Desktop" transform="translate(0.000000, -517.000000)">
            <g id="clouds" transform="translate(0.000000, 517.000000)">
                <g id="Clouds-background-Copy" fill="#DAF4F4">
                    <path d="M726.724621,85 C724.747593,84.4803142 722.848999,83.7671522 721.050303,82.8819786 C720.386698,83.6081608 719.70174,84.3144991 718.996422,85 L0,85 L0,29 C12.2852732,29 23.5145742,33.5211545 32.1148196,40.9903799 C39.0881479,38.4096994 46.6294475,37 54.5,37 C60.3345371,37 65.9881353,37.7746917 71.3635446,39.2268251 C78.4033524,34.0550122 87.094908,31 96.5,31 C104.386089,31 111.770513,33.1478808 118.100182,36.8905514 C127.068409,24.2493385 141.820836,16 158.5,16 C178.199361,16 195.211039,27.5073379 203.179743,44.1667219 C211.711872,37.1872289 222.616946,33 234.5,33 C250.965819,33 265.553877,41.0396524 274.552847,53.4076313 C280.143201,47.0281471 288.351188,43 297.5,43 C297.716074,43 297.931622,43.0022469 298.146624,43.0067185 C310.15303,17.5873888 336.022637,0 366,0 C388.836131,0 409.288501,10.2060944 423.044557,26.3057293 C430.901249,21.0589137 440.343401,18 450.5,18 C467.094121,18 481.781104,26.1654306 490.762188,38.697532 C499.205573,31.9999954 509.885662,28 521.5,28 C531.608868,28 541.009989,31.0302306 548.844571,36.2319022 C551.962219,32.4275553 556.697617,30 562,30 C565.518039,30 568.786486,31.0686321 571.498443,32.8989985 C582.492463,24.1961078 596.389423,19 611.5,19 C622.084494,19 632.073519,21.5495074 640.88647,26.0679179 C649.242018,10.5485773 665.639133,0 684.5,0 C703.216178,0 719.50626,10.3873542 727.919818,25.7116346 C730.03901,25.2456278 732.24082,25 734.5,25 C739.840905,25 744.861176,26.3727948 749.227208,28.7847779 C756.125397,24.4844906 764.272557,22 773,22 C780.912799,22 788.34859,24.042319 794.808997,27.6285836 C799.554554,25.9269946 804.669021,25 810,25 C820.833167,25 830.772252,28.8280196 838.538373,35.2051759 C847.374872,32.4718609 856.76555,31 866.5,31 C879.222817,31 891.358396,33.5142619 902.436978,38.073026 C910.948837,23.0994855 927.044988,13 945.5,13 C965.383716,13 982.52921,24.7237273 990.401086,41.6357882 C1006.17605,31.1255785 1025.12267,25 1045.5,25 C1069.47923,25 1091.47726,33.4824838 1108.65718,47.6105202 C1120.85017,34.9073832 1138.00165,27 1157,27 C1175.03301,27 1191.40207,34.1242232 1203.44618,45.7116708 C1211.4198,40.217027 1221.08421,37 1231.5,37 C1242.11517,37 1251.94991,40.3413671 1260.00985,46.0297051 C1262.97338,43.5161071 1266.80964,42 1271,42 C1274.90857,42 1278.50906,43.3190553 1281.3806,45.5362981 C1295.21238,28.1476116 1316.55436,17 1340.5,17 C1365.48642,17 1387.63793,29.1377186 1401.38,47.8386302 C1410.34854,36.3711268 1424.31346,29 1440,29 L1440,85 L726.724621,85 Z" id="Combined-Shape"></path>
                </g>
                <g id="Clouds-foreground-Copy" transform="translate(0.000000, 33.000000)" fill="#FFFFFF">
                    <path d="M0,15 C25.0864672,15 48.0577036,24.0563798 65.8226477,39.0780779 C78.1359031,32.6404834 92.1428113,29 107,29 C115.105785,29 122.958478,30.0836174 130.421118,32.1138919 C139.478637,20.4819351 153.615569,13 169.5,13 C191.377497,13 209.940105,27.1927271 216.48276,46.8731173 C223.674688,44.9980605 231.220789,44 239,44 C245.294011,44 251.435427,44.6533424 257.360126,45.8959074 C273.631103,28.1359853 297.015077,17 323,17 C348.661398,17 371.78621,27.8604146 388.02883,45.2356373 C406.739341,23.0748114 434.725996,9 466,9 C493.916839,9 519.214222,20.215228 537.632361,38.3858971 C546.649766,28.9079336 559.384947,23 573.5,23 C592.547224,23 609.081768,33.7580595 617.358843,49.5293892 C626.35051,37.0924432 640.980209,29 657.5,29 C667.539935,29 676.881741,31.9890444 684.684077,37.1257927 C690.751653,34.4722045 697.4539,33 704.5,33 C708.290614,33 711.981713,33.4260787 715.528015,34.2329559 C726.370974,13.865595 747.816245,0 772.5,0 C798.503171,0 820.912393,15.3875221 831.118742,37.5536405 C839.208336,21.2256773 856.043219,10 875.5,10 C896.967992,10 915.24403,23.6663778 922.102784,42.7738035 C929.628929,39.6963017 937.866368,38 946.5,38 C953.613476,38 960.457994,39.151542 966.857311,41.2783814 C982.979472,25.048666 1005.31624,15 1030,15 C1057.88584,15 1082.77627,27.8248759 1099.0948,47.8981426 C1108.0625,35.2526411 1122.8175,27 1139.5,27 C1157.56592,27 1173.37139,36.6781139 1182.01458,51.1325 C1190.35263,47.1992186 1199.66949,45 1209.5,45 C1218.80796,45 1227.65542,46.9716289 1235.64754,50.5200353 C1251.85252,33.5627337 1274.69273,23 1300,23 C1324.84072,23 1347.30451,33.1768706 1363.44949,49.5887431 C1382.1408,28.3798309 1409.50789,15 1440,15 L1440,60 L0,60 L0,15 Z" id="Combined-Shape"></path>
                </g>
            </g>
        </g>
    </g>
</svg>