<?xml version="1.0" encoding="UTF-8"?>
<svg width="45px" height="45px" viewBox="0 0 45 45" version="1.1" xmlns="http://www.w3.org/2000/svg" xmlns:xlink="http://www.w3.org/1999/xlink">
    <!-- Generator: Sketch 45.1 (43504) - http://www.bohemiancoding.com/sketch -->
    <title>twitter-icon</title>
    <desc>Created with Sketch.</desc>
    <defs></defs>
    <g id="Page-1" stroke="none" stroke-width="1" fill="none" fill-rule="evenodd">
        <g id="Social-icons" transform="translate(-220.000000, 0.000000)">
            <g id="twitter-icon" transform="translate(220.000000, 0.000000)">
                <circle id="Oval-Copy-2" fill="#001E46" cx="22.5" cy="22.5" r="22.5"></circle>
                <path d="M35.85625,14.49375 C34.9046875,14.9039063 33.8710938,15.1992188 32.8046875,15.3140625 C33.9039062,14.6578125 34.740625,13.6242188 35.134375,12.39375 C34.1171875,13.0007812 32.96875,13.44375 31.7710937,13.6734375 C30.803125,12.6398438 29.425,12 27.8992187,12 C24.9625,12 22.6,14.3789062 22.6,17.2992188 C22.6,17.709375 22.6492187,18.1195313 22.73125,18.5132812 C18.334375,18.2835938 14.4132812,16.1835938 11.8046875,12.9679688 C11.3453125,13.7554688 11.0828125,14.6578125 11.0828125,15.6421875 C11.0828125,17.4796875 12.0179687,19.1039063 13.4453125,20.0554688 C12.5757812,20.0226562 11.7554688,19.7765625 11.05,19.3828125 L11.05,19.4484375 C11.05,22.0242188 12.8710938,24.1570312 15.2992187,24.6492187 C14.85625,24.7640625 14.3804687,24.8296875 13.9046875,24.8296875 C13.5601562,24.8296875 13.2320312,24.796875 12.9039062,24.7476562 C13.5765625,26.8476562 15.5289062,28.3734375 17.8585937,28.4226562 C16.0375,29.85 13.7570312,30.6867188 11.2796875,30.6867188 C10.8367187,30.6867188 10.4265625,30.6703125 10,30.6210938 C12.3460937,32.1304688 15.1351562,33 18.1375,33 C27.8828125,33 33.2148438,24.928125 33.2148438,17.9226562 C33.2148438,17.6929687 33.2148438,17.4632813 33.1984375,17.2335938 C34.2320312,16.4789063 35.134375,15.54375 35.85625,14.49375 Z" id="" fill="#FFFFFF"></path>
            </g>
        </g>
    </g>
</svg>