<?xml version="1.0" encoding="UTF-8"?>
<svg width="45px" height="45px" viewBox="0 0 45 45" version="1.1" xmlns="http://www.w3.org/2000/svg" xmlns:xlink="http://www.w3.org/1999/xlink">
    <!-- Generator: Sketch 45.1 (43504) - http://www.bohemiancoding.com/sketch -->
    <title>youtube-icon</title>
    <desc>Created with Sketch.</desc>
    <defs></defs>
    <g id="Page-1" stroke="none" stroke-width="1" fill="none" fill-rule="evenodd">
        <g id="Social-icons" transform="translate(-332.000000, 0.000000)">
            <g id="youtube-icon" transform="translate(332.000000, 0.000000)">
                <circle id="Oval-Copy-4" fill="#001E46" cx="22.5" cy="22.5" r="22.5"></circle>
                <path d="M25.75,27.4375 L25.75,30.734375 C25.75,31.4375 25.546875,31.78125 25.140625,31.78125 C24.90625,31.78125 24.671875,31.671875 24.4375,31.4375 L24.4375,26.734375 C24.671875,26.5 24.90625,26.390625 25.140625,26.390625 C25.546875,26.390625 25.75,26.75 25.75,27.4375 Z M31.03125,27.453125 L31.03125,28.171875 L29.625,28.171875 L29.625,27.453125 C29.625,26.75 29.859375,26.390625 30.328125,26.390625 C30.796875,26.390625 31.03125,26.75 31.03125,27.453125 Z M15.9375,24.046875 L17.609375,24.046875 L17.609375,22.578125 L12.734375,22.578125 L12.734375,24.046875 L14.375,24.046875 L14.375,32.9375 L15.9375,32.9375 L15.9375,24.046875 Z M20.4375,32.9375 L21.828125,32.9375 L21.828125,25.21875 L20.4375,25.21875 L20.4375,31.125 C20.125,31.5625 19.828125,31.78125 19.546875,31.78125 C19.359375,31.78125 19.25,31.671875 19.21875,31.453125 C19.203125,31.40625 19.203125,31.234375 19.203125,30.90625 L19.203125,25.21875 L17.8125,25.21875 L17.8125,31.328125 C17.8125,31.875 17.859375,32.234375 17.9375,32.46875 C18.0625,32.859375 18.390625,33.046875 18.84375,33.046875 C19.34375,33.046875 19.875,32.734375 20.4375,32.09375 L20.4375,32.9375 Z M27.140625,30.625 L27.140625,27.546875 C27.140625,26.828125 27.109375,26.3125 27,26 C26.828125,25.421875 26.4375,25.125 25.890625,25.125 C25.375,25.125 24.890625,25.40625 24.4375,25.96875 L24.4375,22.578125 L23.046875,22.578125 L23.046875,32.9375 L24.4375,32.9375 L24.4375,32.1875 C24.90625,32.765625 25.390625,33.046875 25.890625,33.046875 C26.4375,33.046875 26.828125,32.75 27,32.1875 C27.109375,31.859375 27.140625,31.34375 27.140625,30.625 Z M32.421875,30.46875 L32.421875,30.265625 L31,30.265625 C31,30.828125 30.984375,31.140625 30.96875,31.21875 C30.890625,31.59375 30.6875,31.78125 30.34375,31.78125 C29.859375,31.78125 29.625,31.421875 29.625,30.703125 L29.625,29.34375 L32.421875,29.34375 L32.421875,27.734375 C32.421875,26.90625 32.28125,26.3125 32,25.921875 C31.59375,25.390625 31.046875,25.125 30.34375,25.125 C29.625,25.125 29.078125,25.390625 28.671875,25.921875 C28.375,26.3125 28.234375,26.90625 28.234375,27.734375 L28.234375,30.4375 C28.234375,31.265625 28.390625,31.875 28.6875,32.25 C29.09375,32.78125 29.640625,33.046875 30.375,33.046875 C31.109375,33.046875 31.6875,32.765625 32.0625,32.21875 C32.234375,31.96875 32.359375,31.6875 32.390625,31.375 C32.421875,31.234375 32.421875,30.921875 32.421875,30.46875 Z M22.921875,16.203125 L22.921875,12.921875 C22.921875,12.203125 22.71875,11.84375 22.25,11.84375 C21.796875,11.84375 21.578125,12.203125 21.578125,12.921875 L21.578125,16.203125 C21.578125,16.921875 21.796875,17.296875 22.25,17.296875 C22.71875,17.296875 22.921875,16.921875 22.921875,16.203125 Z M34.15625,27.9375 C34.15625,29.734375 34.140625,31.65625 33.75,33.40625 C33.453125,34.640625 32.453125,35.546875 31.25,35.671875 C28.375,36 25.46875,36 22.578125,36 C19.6875,36 16.78125,36 13.90625,35.671875 C12.703125,35.546875 11.6875,34.640625 11.40625,33.40625 C11,31.65625 11,29.734375 11,27.9375 C11,26.125 11.015625,24.21875 11.40625,22.46875 C11.703125,21.234375 12.703125,20.328125 13.921875,20.1875 C16.78125,19.875 19.6875,19.875 22.578125,19.875 C25.46875,19.875 28.375,19.875 31.25,20.1875 C32.453125,20.328125 33.46875,21.234375 33.75,22.46875 C34.15625,24.21875 34.15625,26.125 34.15625,27.9375 Z M18.5625,8 L17.5,12.109375 L16.390625,8 L14.734375,8 C15.0625,8.96875 15.40625,9.953125 15.75,10.921875 C16.25,12.375 16.5625,13.46875 16.703125,14.234375 L16.703125,18.46875 L18.265625,18.46875 L18.265625,14.234375 L20.15625,8 L18.5625,8 Z M24.34375,13.203125 L24.34375,15.9375 C24.34375,16.765625 24.203125,17.390625 23.90625,17.78125 C23.515625,18.3125 22.96875,18.578125 22.25,18.578125 C21.546875,18.578125 21,18.3125 20.609375,17.78125 C20.3125,17.375 20.171875,16.765625 20.171875,15.9375 L20.171875,13.203125 C20.171875,12.375 20.3125,11.765625 20.609375,11.375 C21,10.84375 21.546875,10.578125 22.25,10.578125 C22.96875,10.578125 23.515625,10.84375 23.90625,11.375 C24.203125,11.765625 24.34375,12.375 24.34375,13.203125 Z M29.578125,10.671875 L28.15625,10.671875 L28.15625,16.625 C27.84375,17.078125 27.546875,17.296875 27.265625,17.296875 C27.078125,17.296875 26.96875,17.171875 26.9375,16.953125 C26.921875,16.921875 26.921875,16.734375 26.921875,16.40625 L26.921875,10.671875 L25.5,10.671875 L25.5,16.828125 C25.5,17.390625 25.546875,17.765625 25.625,18 C25.765625,18.390625 26.09375,18.578125 26.546875,18.578125 C27.0625,18.578125 27.59375,18.265625 28.15625,17.609375 L28.15625,18.46875 L29.578125,18.46875 L29.578125,10.671875 Z" id="" fill="#FFFFFF"></path>
            </g>
        </g>
    </g>
</svg>