<?xml version="1.0" encoding="UTF-8"?>
<svg width="45px" height="45px" viewBox="0 0 45 45" version="1.1" xmlns="http://www.w3.org/2000/svg" xmlns:xlink="http://www.w3.org/1999/xlink">
    <!-- Generator: Sketch 45.1 (43504) - http://www.bohemiancoding.com/sketch -->
    <title>linkedin-icon</title>
    <desc>Created with Sketch.</desc>
    <defs></defs>
    <g id="Page-1" stroke="none" stroke-width="1" fill="none" fill-rule="evenodd">
        <g id="linkedin-icon">
            <circle id="Oval-Copy" fill="#FFFFFF" cx="22.5" cy="22.5" r="22.5"></circle>
            <path d="M16.77175,18.5218474 L12.2597801,18.5218474 L12.2597801,32.0714298 L16.77175,32.0714298 L16.77175,18.5218474 Z M17.0588754,14.3380208 C17.0452027,13.0117751 16.0881182,12 14.5431103,12 C13.0117751,12 12,13.0117751 12,14.3380208 C12,15.6369212 12.9707572,16.6760416 14.4884198,16.6760416 L14.515765,16.6760416 C16.0881182,16.6760416 17.072548,15.6369212 17.0588754,14.3380208 Z M23.7584671,20.4477089 L23.7584671,18.5218474 L19.2601698,18.5218474 C19.2601698,18.5218474 19.3148603,19.7934026 19.2601698,32.0714298 L23.7584671,32.0714298 L23.7584671,24.5104621 C23.7584671,24.100283 23.799485,23.7037765 23.9088661,23.4029785 C24.2370093,22.596293 24.9753317,21.7622622 26.2195416,21.7622622 C27.8465853,21.7622622 28.5028718,23.0064721 28.5028718,24.8249327 L28.5028718,32.0714298 L33.0011691,32.0714298 L33.0011691,24.3053725 C33.0011691,20.1488911 30.7862021,18.2073768 27.81924,18.2073768 C25.4227742,18.2073768 24.3520235,19.5198348 23.7584671,20.4477089 L23.7584671,20.4477089 Z" id="" fill="#001E46"></path>
        </g>
    </g>
</svg>