<?xml version="1.0" encoding="UTF-8"?>
<svg width="218px" height="75px" viewBox="0 0 218 75" version="1.1" xmlns="http://www.w3.org/2000/svg" xmlns:xlink="http://www.w3.org/1999/xlink">
    <!-- Generator: Sketch 44.1 (41455) - http://www.bohemiancoding.com/sketch -->
    <title>zoek-hirer-logo</title>
    <desc>Created with Sketch.</desc>
    <defs></defs>
    <g id="Page-1" stroke="none" stroke-width="1" fill="none" fill-rule="evenodd">
        <g id="zoek-hirer-logo">
            <g id="zoek-hirer-logo-copy-5">
                <path d="M52.8067742,32.9240323 C46.3679032,32.9240323 41.1481452,27.7042742 41.1481452,21.2654032 C41.1481452,14.8265323 46.3679032,9.60677419 52.8067742,9.60677419 C59.2456452,9.60677419 64.4654032,14.8265323 64.4654032,21.2654032 C64.4654032,27.7042742 59.2456452,32.9240323 52.8067742,32.9240323 M52.8067742,0.00556451613 C41.0651613,0.00556451613 31.5469355,9.52403226 31.5469355,21.2654032 C31.5469355,21.3754839 31.5483871,21.4872581 31.5512903,21.6007258 C31.5817742,23.5795161 31.8827419,25.4927419 32.418629,27.3050806 C36.4158871,44.0329839 52.8067742,74.7580645 52.8067742,74.7580645 C52.8067742,74.7580645 69.2245161,44.0049194 73.2045968,27.2721774 C73.7344355,25.4697581 74.0317742,23.5683871 74.0625,21.6016935 C74.0651613,21.4879839 74.0666129,21.3757258 74.0666129,21.2654032 C74.0666129,9.52403226 64.5481452,0.00556451613 52.8067742,0.00556451613" id="Fill-1" fill="#001E46"></path>
                <path d="M26.7462097,32.238871 L13.9899194,32.238871 L30.7175806,8.18903226 L30.7173387,8.18903226 C31.2406452,7.42016129 31.5469355,6.49209677 31.5469355,5.49193548 C31.5469355,2.84080645 29.3975806,0.691451613 26.7462097,0.691451613 L4.57717742,0.691451613 L4.57717742,0.702822581 C2.03032258,0.82016129 0,2.91629032 0,5.49193548 C0,8.06782258 2.03032258,10.1637097 4.57717742,10.2812903 L4.57717742,10.2926613 L17.5599194,10.2926613 L0.868306452,34.2904839 C0.855967742,34.3083871 0.841451613,34.3243548 0.829354839,34.3422581 C0.828629032,34.3434677 0.827903226,34.3444355 0.827177419,34.3456452 C0.816774194,34.361129 0.80733871,34.3775806 0.796935484,34.3933065 L0.703790323,34.5270968 L0.712016129,34.5329032 C0.665564516,34.608629 0.616935484,34.6829032 0.574596774,34.7612903 C0.569274194,34.7712097 0.565403226,34.781371 0.560080645,34.7912903 C0.491854839,34.92 0.428225806,35.0516129 0.371370968,35.1868548 C0.345725806,35.2480645 0.326370968,35.3107258 0.303387097,35.3726613 C0.272177419,35.4573387 0.238548387,35.5408065 0.211935484,35.6276613 C0.182419355,35.7232258 0.160887097,35.82 0.13766129,35.9165323 C0.124354839,35.9719355 0.107419355,36.0258871 0.0960483871,36.0820161 C0.0319354839,36.3984677 0,36.7183065 0.000241935484,37.0371774 C0.000241935484,37.0381452 0,37.038871 0,37.0395968 C0,37.0543548 0.00217741935,37.0683871 0.00217741935,37.0831452 C0.00362903226,37.2246774 0.00991935484,37.3657258 0.0237096774,37.5062903 C0.0312096774,37.5851613 0.045483871,37.6620968 0.0568548387,37.74 C0.067983871,37.815 0.0764516129,37.8902419 0.0912096774,37.9645161 C0.109354839,38.0579032 0.134032258,38.148871 0.1575,38.2403226 C0.172741935,38.298871 0.185322581,38.3576613 0.202741935,38.4154839 C0.229596774,38.5057258 0.262258065,38.5933065 0.294193548,38.681129 C0.315725806,38.7401613 0.335322581,38.7999194 0.359032258,38.8579839 C0.391209677,38.936371 0.427983871,39.0118548 0.464032258,39.0880645 C0.495241935,39.1545968 0.525241935,39.221371 0.559596774,39.2864516 C0.593225806,39.3500806 0.630967742,39.4105645 0.667258065,39.4722581 C0.710806452,39.5465323 0.753629032,39.6210484 0.801290323,39.6931452 C0.835403226,39.7439516 0.87266129,39.7923387 0.908467742,39.8419355 C0.963870968,39.9191129 1.01903226,39.9965323 1.07951613,40.0708065 C1.11677419,40.1162903 1.15717742,40.158629 1.1958871,40.2026613 C1.25927419,40.275 1.32169355,40.3475806 1.38991935,40.4162903 C1.44169355,40.4685484 1.49758065,40.5164516 1.55177419,40.5662903 C1.61129032,40.6209677 1.6683871,40.6775806 1.73129032,40.7295968 C1.83653226,40.8171774 1.9466129,40.8987097 2.0591129,40.9770968 C2.07435484,40.9879839 2.08790323,41.0003226 2.10362903,41.0107258 C2.10435484,41.0114516 2.10532258,41.0116935 2.10604839,41.0124194 C2.24032258,41.103629 2.37943548,41.1883065 2.52314516,41.2659677 C2.52604839,41.2674194 2.52919355,41.268629 2.53209677,41.2700806 C2.66733871,41.3429032 2.80620968,41.4094355 2.94895161,41.4689516 C3.00532258,41.4926613 3.06290323,41.5103226 3.11975806,41.5316129 C3.20927419,41.565 3.29782258,41.6003226 3.38975806,41.628629 C3.48,41.6564516 3.57145161,41.6765323 3.66266129,41.6987903 C3.7233871,41.7135484 3.78266129,41.7319355 3.8441129,41.7442742 C3.99314516,41.7745161 4.14314516,41.7970161 4.2933871,41.8127419 C4.29919355,41.8134677 4.30475806,41.8146774 4.31032258,41.8154032 C4.39935484,41.8243548 4.4883871,41.8260484 4.57717742,41.8299194 L4.57717742,41.8400806 L26.7462097,41.8400806 C29.3975806,41.8400806 31.5469355,39.6907258 31.5469355,37.0395968 C31.5469355,34.3882258 29.3975806,32.238871 26.7462097,32.238871" id="Fill-2" fill="#001E46"></path>
                <path d="M139.774839,21.2779839 L151.823226,9.22935484 C153.697984,7.35483871 153.697984,4.31516129 151.823226,2.44040323 C149.948468,0.565645161 146.90879,0.565645161 145.034032,2.44040323 L131.602258,15.8719355 L131.602258,5.49217742 C131.602258,2.84080645 129.453145,0.691451613 126.801774,0.691451613 C124.150403,0.691451613 122.001048,2.84080645 122.001048,5.49217742 L122.001048,37.0393548 C122.001048,39.6909677 124.150403,41.8398387 126.801774,41.8398387 C129.453145,41.8398387 131.602258,39.6909677 131.602258,37.0393548 L131.602258,26.6833065 L145.352661,40.4337097 C147.227419,42.3087097 150.267097,42.3087097 152.141855,40.4337097 C154.016613,38.5589516 154.016613,35.5197581 152.141855,33.6447581 L139.774839,21.2779839 Z" id="Fill-3" fill="#001E46"></path>
                <path d="M97.9548387,9.60677419 C102.681774,9.60677419 106.74871,12.4214516 108.57871,16.4646774 L87.3312097,16.4646774 C89.1612097,12.4214516 93.2281452,9.60677419 97.9548387,9.60677419 M118.670565,16.4646774 C116.494113,7.03548387 108.045484,0.00556451613 97.9548387,0.00556451613 C86.2134677,0.00556451613 76.695,9.52403226 76.695,21.2654032 C76.695,25.2805645 77.808629,29.0354032 79.7431452,32.238871 C83.4653226,38.4033871 90.2283871,42.5252419 97.9548387,42.5252419 C103.825645,42.5252419 109.140242,40.1458065 112.987742,36.2985484 C112.987742,36.2985484 112.987984,36.2985484 112.987984,36.2983065 C114.095081,35.1912097 114.542661,33.678629 114.342339,32.238871 C114.203468,31.2404032 113.755645,30.2770161 112.987984,29.5093548 C111.113226,27.6345968 108.073548,27.6345968 106.19879,29.5093548 C104.995887,30.7120161 103.530968,31.6519355 101.897661,32.238871 C100.665968,32.681371 99.3389516,32.9240323 97.9548387,32.9240323 C96.5707258,32.9240323 95.2437097,32.681371 94.0120161,32.238871 C91.0374194,31.17 88.6253226,28.9253226 87.3312097,26.0658871 L114.414194,26.0658871 C117.065323,26.0658871 119.214677,23.9165323 119.214677,21.2654032 C119.214677,19.6144355 119.026694,18.0075 118.670565,16.4646774" id="Fill-4" fill="#001E46"></path>
                <path d="M68.3533065,41.7137903 C64.4726613,37.5546774 58.9439516,34.9531452 52.8067742,34.9531452 C46.6715323,34.9531452 41.1442742,37.5529839 37.263871,41.7096774 C43.5609677,57.4260484 52.8067742,74.7578226 52.8067742,74.7578226 C52.8067742,74.7578226 62.0562097,57.4320968 68.3533065,41.7137903 Z" id="Fill-5" fill="#F04196"></path>
                <path d="M45.8206452,36.1294355 C49.0647581,43.5708871 52.8067742,50.5858065 52.8067742,50.5858065 C52.8067742,50.5858065 56.5507258,43.5723387 59.7953226,36.1304032 C57.6065323,35.3683065 55.2554032,34.9531452 52.8067742,34.9531452 C50.3591129,34.9531452 48.0087097,35.3680645 45.8206452,36.1294355" id="Fill-6" fill="#FFFFFF"></path>
                <path d="M157.079032,3.31766129 L157.341048,3.31766129 C157.647097,3.31766129 157.894597,3.21580645 157.894597,2.96782258 C157.894597,2.74959677 157.734677,2.60395161 157.384839,2.60395161 C157.238952,2.60395161 157.137097,2.61870968 157.079032,2.63346774 L157.079032,3.31766129 Z M157.064758,4.67153226 L156.510968,4.67153226 L156.510968,2.28387097 C156.729194,2.23983871 157.035,2.21080645 157.428629,2.21080645 C157.879355,2.21080645 158.083065,2.28387097 158.25871,2.38572581 C158.389113,2.48758065 158.490968,2.67677419 158.490968,2.90975806 C158.490968,3.17177419 158.287016,3.37572581 157.996694,3.46354839 L157.996694,3.49258065 C158.229194,3.57967742 158.360806,3.75459677 158.433145,4.07467742 C158.506452,4.43854839 158.549032,4.58443548 158.608306,4.67153226 L158.010968,4.67153226 C157.938629,4.58443548 157.894597,4.36572581 157.821048,4.08943548 C157.77871,3.82741935 157.632581,3.71080645 157.326774,3.71080645 L157.064758,3.71080645 L157.064758,4.67153226 Z M155.593306,3.41951613 C155.593306,4.48258065 156.380565,5.32717742 157.457177,5.32717742 C158.506452,5.32717742 159.278468,4.48258065 159.278468,3.43379032 C159.278468,2.37096774 158.506452,1.51185484 157.442903,1.51185484 C156.380565,1.51185484 155.593306,2.37096774 155.593306,3.41951613 L155.593306,3.41951613 Z M159.888871,3.41951613 C159.888871,4.77362903 158.826774,5.83645161 157.442903,5.83645161 C156.074758,5.83645161 154.982903,4.77362903 154.982903,3.41951613 C154.982903,2.09467742 156.074758,1.03185484 157.442903,1.03185484 C158.826774,1.03185484 159.888871,2.09467742 159.888871,3.41951613 L159.888871,3.41951613 Z" id="Fill-7" fill="#111A2D"></path>
                <path d="M52.8067742,32.9240323 C46.3679032,32.9240323 41.1481452,27.7042742 41.1481452,21.2654032 C41.1481452,14.8265323 46.3679032,9.60677419 52.8067742,9.60677419 C59.2456452,9.60677419 64.4654032,14.8265323 64.4654032,21.2654032 C64.4654032,27.7042742 59.2456452,32.9240323 52.8067742,32.9240323" id="Fill-8" fill="#FFFFFF"></path>
            </g>
            <text id="hirer-copy" font-family="Nunito-Regular, Nunito" font-size="24" font-weight="normal" fill="#334C6B">
                <tspan x="169" y="29">hirer</tspan>
            </text>
        </g>
    </g>
</svg>